<?xml version="1.0" encoding="UTF-8"?>
<svg version="1.1" xmlns="http://www.w3.org/2000/svg" width="1591" height="935">
<path d="M0 0 C23.43 0 46.86 0 71 0 C80.04419497 20.02643173 89.06482267 40.05727352 97.875 60.1875 C104.18449347 74.60343207 110.53845457 88.99858233 116.9375 103.375 C123.74845239 118.67901494 130.5429996 133.99009919 137.3125 149.3125 C137.8986055 150.6386734 137.8986055 150.6386734 138.49655151 151.99163818 C143.35433584 162.98428846 148.1914821 173.98570716 153 185 C157.88289408 175.70016508 161.99203927 166.05919994 166.1875 156.4375 C166.98547676 154.61299525 167.78374089 152.78861617 168.58227539 150.96435547 C170.23763735 147.18197795 171.8917741 143.39906843 173.54492188 139.61572266 C177.33310316 130.94804926 181.13506315 122.2864266 184.9375 113.625 C185.30596039 112.78540741 185.67442078 111.94581482 186.05404663 111.08078003 C192.24004742 96.98572638 198.45596219 82.90402478 204.68237305 68.82678223 C211.55378566 53.29033191 218.39281912 37.73983655 225.21484375 22.18164062 C225.57417496 21.36229034 225.93350616 20.54294006 226.3037262 19.69876099 C226.96520037 18.19029632 227.62646635 16.68174033 228.28746033 15.17306519 C230.50835265 10.10773854 232.75364444 5.05430001 235 0 C258.43 0 281.86 0 306 0 C306 2.64 306 5.28 306 8 C304.91900024 8.06731323 304.91900024 8.06731323 303.81616211 8.13598633 C300.52228778 8.34848581 297.23004336 8.58032176 293.9375 8.8125 C292.80376953 8.88275391 291.67003906 8.95300781 290.50195312 9.02539062 C280.55559491 9.68165974 280.55559491 9.68165974 272.1875 14.6875 C266.27631804 26.19874907 267.85081061 42.27419916 267.87060547 54.85131836 C267.8692455 56.26597641 267.86746225 57.6806341 267.86529541 59.09529114 C267.86079145 62.88875367 267.86248135 66.68218857 267.8656745 70.4756515 C267.86823542 74.47730369 267.86585024 78.47895378 267.86428833 82.48060608 C267.8624772 89.19728004 267.86484485 95.91394295 267.86962891 102.63061523 C267.87506725 110.35422113 267.87330768 118.0778006 267.8678025 125.80140585 C267.86323845 132.47621539 267.86263689 139.15101706 267.86524117 145.82582766 C267.86678623 149.79328726 267.86704711 153.76073452 267.86370468 157.72819328 C267.86077781 161.46216355 267.86288833 165.19610035 267.86859894 168.93006706 C267.87051353 170.92356192 267.8676139 172.91705968 267.86447144 174.91055298 C267.11570276 195.00764754 267.11570276 195.00764754 273.625 213.375 C280.38810435 218.00238719 288.09320164 218.4933974 296.0625 218.6875 C297.02349609 218.72166016 297.98449219 218.75582031 298.97460938 218.79101562 C301.31602268 218.87255738 303.65798845 218.93797412 306 219 C306 221.97 306 224.94 306 228 C270.03 228 234.06 228 197 228 C197 225.03 197 222.06 197 219 C198.90072266 218.94392578 198.90072266 218.94392578 200.83984375 218.88671875 C202.53908931 218.82100207 204.2383068 218.75455677 205.9375 218.6875 C206.76830078 218.66494141 207.59910156 218.64238281 208.45507812 218.61914062 C215.74056565 218.30731042 222.42870806 217.35245858 227.9375 212.3125 C231.81706549 206.0816827 232.34584751 199.36522439 232.61889648 192.19262695 C232.656566 191.30253339 232.69423552 190.41243982 232.73304653 189.49537373 C233.24937808 175.46584135 233.12638333 161.41627492 233.10139394 147.37943435 C233.09505287 143.20350421 233.09454824 139.027573 233.09336853 134.85163879 C233.0902864 126.97936181 233.08211601 119.10709907 233.07201904 111.23482829 C233.06075984 102.25748869 233.05532298 93.28014833 233.05032361 84.3028034 C233.03993001 65.86852759 233.02239236 47.43426495 233 29 C220.38038076 57.12355515 220.38038076 57.12355515 207.94116211 85.32714844 C206.09874268 89.54530744 204.25057429 93.76094716 202.40234375 97.9765625 C202.03176849 98.82188538 201.66119324 99.66720825 201.27938843 100.53814697 C197.54966622 109.0388359 193.77782961 117.52060741 190 126 C183.90898238 139.67248951 177.87728763 153.37023531 171.86959839 167.07952881 C165.63828631 181.29699533 159.35640888 195.49135153 153.03710938 209.66992188 C152.71939072 210.38312592 152.40167206 211.09632996 152.07432556 211.83114624 C151.48998394 213.14258164 150.90519888 214.4538196 150.31983948 215.76480103 C148.5091069 219.82783548 146.74442139 223.90821195 145 228 C141.7 228 138.4 228 135 228 C134.54898926 226.96746094 134.09797852 225.93492187 133.63330078 224.87109375 C124.8208278 204.70553588 115.94156527 184.57369921 106.87893677 164.51922607 C101.18936596 151.92391771 95.59696936 139.28916901 90.0625 126.625 C83.22066246 110.97073365 76.2454621 95.38125607 69.15844727 79.83642578 C64.08669959 68.69601342 59.12342589 57.50973741 54.18823242 46.30834961 C53.48835099 44.72074321 52.78842809 43.13315508 52.08846283 41.54558563 C50.39183111 37.69726736 48.69575843 33.84870316 47 30 C46.95314191 49.55926713 46.91794379 69.11852276 46.89637566 88.67783451 C46.88609208 97.76090949 46.87208798 106.84394946 46.84912109 115.92700195 C46.8290974 123.84988936 46.81626239 131.77275139 46.81182301 139.69566339 C46.80923074 143.88523054 46.80319963 148.07472513 46.78853989 152.26426888 C46.77481356 156.21966099 46.77080725 160.1749517 46.77378464 164.13036537 C46.77324112 165.5705343 46.76935431 167.01070716 46.76158905 168.45085526 C46.45610766 190.08322442 46.45610766 190.08322442 56.0625 208.6875 C63.28574131 215.43329892 72.43141243 217.75997028 82 219 C82 221.97 82 224.94 82 228 C54.94 228 27.88 228 0 228 C0 225.03 0 222.06 0 219 C0.89460938 218.84144531 1.78921875 218.68289063 2.7109375 218.51953125 C13.65505603 216.40771307 22.15436253 213.91698946 29.52734375 205.2578125 C37.1073422 193.63648862 36.30018572 178.15777419 36.25878906 164.80395508 C36.26150953 163.36457646 36.2650763 161.92519925 36.26940918 160.48582458 C36.27840769 156.6306145 36.27504231 152.77551329 36.26865101 148.92030168 C36.26352805 144.85585666 36.26829944 140.79141993 36.27142334 136.72697449 C36.27504363 129.90951898 36.27031383 123.09210707 36.26074219 116.2746582 C36.24984825 108.4254091 36.25339788 100.57626385 36.264395 92.72701722 C36.27350774 85.94777 36.27473414 79.16855381 36.26951766 72.38930243 C36.26642146 68.35766537 36.26592343 64.32607694 36.27259064 60.29444313 C36.2784224 56.50461971 36.27426214 52.71492871 36.26280212 48.9251194 C36.25895248 46.89408163 36.2647901 44.86303248 36.27105713 42.83200073 C36.46234136 27.69861463 36.46234136 27.69861463 31 14 C23.85458067 7.16125103 9.28420478 8.52893521 0 8 C0 5.36 0 2.72 0 0 Z " fill="#E25751" transform="translate(117,288)"/>
<path d="M0 0 C2.33400621 0.01613875 4.66628821 -0.00000222 7.00024414 -0.01904297 C30.69357405 -0.05256248 51.88857641 5.44109144 69.54516602 22.09033203 C86.29325606 39.42710714 84.05833276 67.49814159 84.10334778 89.86120033 C84.1117515 93.90310157 84.13208371 97.94478701 84.15588379 101.98661804 C84.20846641 111.28592294 84.24229959 120.58527613 84.2756424 129.88466644 C84.30648059 138.4364785 84.34148056 146.9882208 84.39195299 155.53994244 C84.41873588 160.18470157 84.43074582 164.82936377 84.44006348 169.47419739 C84.45304489 171.92217308 84.46656652 174.37014599 84.48071289 176.81811523 C84.47973099 177.90258942 84.47874908 178.9870636 84.47773743 180.10440063 C84.40173032 194.98829593 84.40173032 194.98829593 89.76782227 208.39111328 C94.11552442 211.35545566 97.56701814 212.01879654 102.76782227 211.39111328 C108.37466305 209.68980091 111.81432501 206.99681008 114.67016602 201.89501953 C116.86389393 196.89082168 118.33171882 191.65415161 119.76782227 186.39111328 C123.39782227 186.39111328 127.02782227 186.39111328 130.76782227 186.39111328 C129.33612197 201.40512824 126.9271902 213.87603906 115.51782227 224.64111328 C104.69537672 233.46741887 90.01088606 233.43847967 76.76782227 232.39111328 C72.76675647 231.54066648 69.37351731 230.30393117 65.76782227 228.39111328 C64.71594727 227.83423828 63.66407227 227.27736328 62.58032227 226.70361328 C54.14693246 219.76949278 50.1165795 212.7359176 46.76782227 202.39111328 C46.39399414 201.27091797 46.02016602 200.15072266 45.63500977 198.99658203 C45.34883789 198.13677734 45.06266602 197.27697266 44.76782227 196.39111328 C43.7868457 197.08076172 42.80586914 197.77041016 41.79516602 198.48095703 C21.68806866 212.52700315 0.73341488 225.19808154 -23.23217773 231.39111328 C-23.99272461 231.59091797 -24.75327148 231.79072266 -25.53686523 231.99658203 C-36.66438978 233.6253936 -49.77500812 233.75929806 -60.23217773 229.39111328 C-61.21186523 228.98892578 -62.19155273 228.58673828 -63.20092773 228.17236328 C-75.33094671 222.65871829 -85.29928029 213.70765266 -90.10717773 201.07861328 C-93.87199976 186.51827748 -92.0130734 170.64754107 -84.65795898 157.59814453 C-82.97274853 155.06443651 -81.17233014 152.73431161 -79.23217773 150.39111328 C-78.60956055 149.59576172 -77.98694336 148.80041016 -77.34545898 147.98095703 C-65.8943041 134.21775944 -49.62685404 125.07348824 -34.23217773 116.39111328 C-33.42216309 115.93381836 -32.61214844 115.47652344 -31.77758789 115.00537109 C-17.34293573 106.95488651 -2.26251531 100.43190829 12.94360352 94.01074219 C16.13287704 92.66297686 19.31467554 91.29855955 22.49382019 89.92709351 C25.47901124 88.63966051 28.46736733 87.35961569 31.45532227 86.07861328 C32.55384521 85.60423828 33.65236816 85.12986328 34.78417969 84.64111328 C36.29782104 83.99722656 36.29782104 83.99722656 37.84204102 83.34033203 C39.16594849 82.77318481 39.16594849 82.77318481 40.51660156 82.19458008 C42.76782227 81.39111328 42.76782227 81.39111328 45.76782227 81.39111328 C45.55329653 76.76783333 45.3226566 72.145716 45.078125 67.52392578 C44.99737475 65.95708188 44.92075735 64.39001855 44.84863281 62.82275391 C43.95934689 41.83532629 43.95934689 41.83532629 32.88110352 24.64501953 C30.90675992 23.08959364 28.89894598 21.72204495 26.76782227 20.39111328 C25.91317383 19.82263672 25.91317383 19.82263672 25.04125977 19.24267578 C11.53994336 11.33221287 -6.80606485 12.2408775 -21.51342773 15.41064453 C-29.09760963 17.41025551 -36.09114202 21.1390147 -40.23730469 28.07177734 C-42.89779438 33.20644978 -44.33384325 38.20936961 -45.60717773 43.82861328 C-47.5470582 51.65830583 -49.42827964 58.63514976 -56.04077148 63.80517578 C-61.14925668 66.8270966 -66.42791035 67.29256844 -72.23217773 66.39111328 C-76.56013887 65.08759876 -79.39947739 63.43198871 -82.23217773 59.89111328 C-84.72229909 51.17568854 -83.88944738 43.83667639 -79.6940918 35.7578125 C-70.37718422 19.63307875 -54.0129235 8.78663892 -36.35784912 3.93319702 C-24.37541212 0.87746399 -12.32774296 -0.10084572 0 0 Z M35.92407227 98.10205078 C35.2469368 98.38563446 34.56980133 98.66921814 33.87214661 98.96139526 C31.66743862 99.88879079 29.46716454 100.82606822 27.26782227 101.76611328 C26.14602066 102.24413391 26.14602066 102.24413391 25.0015564 102.73181152 C-1.77207631 114.1718567 -31.95489136 127.99119444 -44.50170898 156.25048828 C-49.08321384 168.48941997 -49.38805027 180.98416534 -45.23217773 193.39111328 C-41.46230317 201.28209297 -35.08418833 208.22365722 -26.79467773 211.32861328 C-11.55853131 215.4674646 3.10087027 208.41125579 16.17797852 201.10595703 C21.99314392 197.73419931 27.65188989 194.07737308 32.86979675 189.82626343 C34.76782227 188.39111328 34.76782227 188.39111328 37.47505188 186.83413696 C41.29167179 184.3575448 44.9366027 181.98734492 46.38523483 177.46268654 C47.33573872 171.72598094 47.02925903 165.92559811 46.84204102 160.13720703 C46.82149828 158.26681615 46.80585264 156.39636565 46.7948761 154.52589417 C46.75307821 149.62687808 46.64521949 144.73150845 46.52313232 139.83392334 C46.41015443 134.82679574 46.3602715 129.81907273 46.30493164 124.81103516 C46.18732008 115.00280119 45.99984319 105.19726161 45.76782227 95.39111328 C42.05057389 95.39111328 39.28324255 96.67493946 35.92407227 98.10205078 Z " fill="#E25751" transform="translate(1148.232177734375,287.60888671875)"/>
<path d="M0 0 C1.33061497 1.12474623 2.6448858 2.26927964 3.9375 3.4375 C4.79988281 4.18 4.79988281 4.18 5.6796875 4.9375 C21.05160129 19.10516248 29.85841082 39.0790485 32.9375 59.4375 C32.9375 61.4175 32.9375 63.3975 32.9375 65.4375 C-14.5825 65.4375 -62.1025 65.4375 -111.0625 65.4375 C-112.71042032 128.14770035 -112.71042032 128.14770035 -85.6875 184.25 C-73.13701333 195.90800762 -57.59995736 199.98260319 -40.7421875 199.6875 C-22.04557271 198.41724167 -6.26931155 191.49000766 6.765625 178.0390625 C11.37541499 172.5172637 15.26467804 166.10772132 18.24609375 159.56640625 C19.9375 157.4375 19.9375 157.4375 23.07421875 156.94921875 C24.24597656 157.00722656 25.41773438 157.06523437 26.625 157.125 C27.80449219 157.17011719 28.98398437 157.21523438 30.19921875 157.26171875 C31.10285156 157.31972656 32.00648438 157.37773437 32.9375 157.4375 C30.00020242 173.4796637 19.28272553 187.73327616 6.3515625 197.36328125 C-17.2490798 212.97015761 -43.97611362 219.17448066 -71.85180664 213.91601562 C-98.53787455 208.24331291 -121.93973203 191.59769136 -136.93359375 168.87890625 C-156.31181221 137.92524259 -159.38564339 101.56195091 -151.55859375 66.15820312 C-144.90825893 38.34995124 -128.00536757 12.73767228 -103.75 -2.75 C-72.56842328 -21.17056151 -29.65731567 -22.24298675 0 0 Z M-94.0625 12.4375 C-102.66863219 23.42442695 -110.0625 40.26597147 -110.0625 54.4375 C-77.7225 54.4375 -45.3825 54.4375 -12.0625 54.4375 C-12.0625 33.83868206 -12.06586163 22.37216636 -25.1875 7.75 C-34.70584 -1.3251357 -46.79182258 -4.02919961 -59.46875 -3.8125 C-72.97734222 -2.87277185 -84.87419645 2.44350565 -94.0625 12.4375 Z " fill="#E25751" transform="translate(588.0625,303.5625)"/>
<path d="M0 0 C32.34 0 64.68 0 98 0 C98 2.64 98 5.28 98 8 C96.081875 8.16435547 96.081875 8.16435547 94.125 8.33203125 C92.41661224 8.49160593 90.7082818 8.65179497 89 8.8125 C87.74123047 8.91788086 87.74123047 8.91788086 86.45703125 9.02539062 C80.83388713 9.57026893 76.14845065 10.62688603 71 13 C68.27237426 17.09143861 68.28023534 20.27917879 69 25 C69.7724519 27.42310067 70.58711099 29.75851543 71.50390625 32.125 C71.7686525 32.81849045 72.03339874 33.5119809 72.3061676 34.22648621 C75.38281585 42.16610105 78.82444148 49.94550415 82.2855835 57.72323608 C84.29536234 62.24079253 86.28949989 66.76525399 88.28515625 71.2890625 C88.68790771 72.20119003 89.09065918 73.11331757 89.50561523 74.05308533 C93.18930189 82.4055904 96.79438803 90.79040015 100.375 99.1875 C106.25309112 112.96354662 112.20717093 126.70553754 118.1875 140.4375 C125.51641631 157.2671384 132.80429056 174.11293345 140 191 C142.9931954 185.17514273 145.63660682 179.28308691 148.1328125 173.23046875 C148.5220842 172.29340591 148.9113559 171.35634308 149.31242371 170.3908844 C150.58583872 167.32414328 151.85536469 164.25580759 153.125 161.1875 C154.47431242 157.93589296 155.82467605 154.6847237 157.17506409 151.43356323 C158.0958358 149.21651726 159.0162739 146.9993327 159.93638611 144.78201294 C164.0034421 134.9826341 168.09660552 125.1943259 172.19827271 115.40939331 C173.3116562 112.75201395 174.42353 110.09400797 175.53491211 107.43579102 C178.73408246 99.78550847 181.93800404 92.13750656 185.17375183 84.50260925 C193.78464496 64.35650469 193.78464496 64.35650469 201.375 43.8125 C201.6433667 43.02375488 201.9117334 42.23500977 202.18823242 41.42236328 C204.66059126 33.7103715 205.99179657 26.64560776 203.00390625 18.94140625 C200.52522267 14.1479987 196.25390566 12.38427153 191.3359375 10.66015625 C186.95963169 9.42337417 182.4886309 8.70134858 178 8 C178 5.36 178 2.72 178 0 C201.43 0 224.86 0 249 0 C249 2.64 249 5.28 249 8 C248.154375 8.21914063 247.30875 8.43828125 246.4375 8.6640625 C235.20677967 11.80355932 228.08656272 15.97825476 222.03695679 26.11883545 C219.9047183 29.98697296 218.13998389 34.03160435 216.33203125 38.05859375 C215.67562904 39.51258827 215.67562904 39.51258827 215.00596619 40.99595642 C210.53381793 50.95220847 206.27894188 60.99595889 202.0625 71.0625 C201.24324815 73.01169398 200.4236596 74.96074647 199.60375977 76.90966797 C197.90940565 80.93779457 196.21646703 84.96651176 194.52441406 88.99560547 C192.08399651 94.80377108 189.63358192 100.60767356 187.1796875 106.41015625 C186.78730392 107.33806473 186.39492035 108.26597321 185.99064636 109.22200012 C185.20086977 111.0896416 184.41109011 112.95728178 183.62130737 114.82492065 C176.67928255 131.24500787 169.77572344 147.68086511 162.90109253 164.12927246 C155.98049703 180.68631814 149.00729093 197.22089717 142.015625 213.74804688 C141.62733521 214.66631256 141.23904541 215.58457825 140.83898926 216.53067017 C140.11441855 218.24405446 139.38943046 219.95726234 138.66394043 221.67025757 C138.34107056 222.43375519 138.01820068 223.19725281 137.68554688 223.98388672 C137.40674683 224.64250702 137.12794678 225.30112732 136.84069824 225.97970581 C135.87084145 228.3103828 134.93754466 230.65613835 134 233 C130.04 233 126.08 233 122 233 C117.30091709 223.88207104 113.02160343 214.6720844 109.03662109 205.22320557 C107.41195168 201.37244753 105.77117924 197.52853901 104.1328125 193.68359375 C103.79195618 192.88268311 103.45109985 192.08177246 103.09991455 191.2565918 C99.45064684 182.69055853 95.72852789 174.15675886 92 165.625 C90.56605076 162.34130098 89.13257068 159.05739729 87.69921875 155.7734375 C87.32777237 154.92249008 86.95632599 154.07154266 86.57362366 153.19480896 C81.63889304 141.88611382 76.72483484 130.56843767 71.8125 119.25 C71.33192139 118.14276581 70.85134277 117.03553162 70.35620117 115.89474487 C61.96482755 96.5578496 53.6071076 77.20651278 45.26879883 57.84667969 C43.21771421 53.08456488 41.16271854 48.32415308 39.105896 43.56451416 C38.04425999 41.10263658 36.98866454 38.63824533 35.93408203 36.17333984 C35.31300957 34.73136603 34.69176542 33.28946614 34.0703125 31.84765625 C33.80089844 31.21304977 33.53148437 30.5784433 33.25390625 29.92460632 C30.10148061 22.64481738 25.62317177 15.42948395 18.07421875 12.16796875 C12.19840333 10.04933548 6.15384771 8.97771412 0 8 C0 5.36 0 2.72 0 0 Z " fill="#E25751" transform="translate(816,288)"/>
<path d="M0 0 C36.3 0 72.6 0 110 0 C110 2.64 110 5.28 110 8 C108.83597656 8.05945801 108.83597656 8.05945801 107.6484375 8.12011719 C104.09770509 8.31184826 100.54913158 8.53069218 97 8.75 C95.77925781 8.811875 94.55851563 8.87375 93.30078125 8.9375 C86.2394868 9.39552991 80.9669628 10.07946849 75 14 C71.28059701 20.47896005 70.87649522 27.04607883 70.85955811 34.38729858 C70.85658698 35.10956937 70.85361586 35.83184016 70.8505547 36.57599795 C70.84191588 38.98475925 70.84036358 41.39347056 70.83886719 43.80224609 C70.8342357 45.53397222 70.8292106 47.26569733 70.82382202 48.99742126 C70.81073027 53.69373396 70.80425969 58.39003238 70.79981136 63.08636045 C70.7968762 66.02223241 70.79277062 68.95810049 70.78830719 71.89397049 C70.77464247 81.08514016 70.76497007 90.27630094 70.7611053 99.46748006 C70.75662306 110.06775103 70.73906314 120.66789315 70.7101047 131.26812494 C70.6884788 139.46957963 70.67840058 147.67099809 70.67706418 155.87248099 C70.67601706 160.76766204 70.67012871 165.6627218 70.65224457 170.55787277 C70.63574757 175.16259404 70.63361629 179.76710302 70.64238358 184.37184334 C70.643153 186.05845395 70.6388237 187.74507605 70.62892532 189.43165779 C70.37913438 201.08893865 70.37913438 201.08893865 74 212 C81.1308625 218.30169244 89.98378438 218.30911747 99.0078125 218.30078125 C100.05089569 218.30506638 101.09397888 218.3093515 102.16867065 218.31376648 C104.36895017 218.31948733 106.5692486 218.32002667 108.76953125 218.31567383 C112.09408838 218.31252924 115.4177411 218.33594879 118.7421875 218.36132812 C135.24870372 218.41019101 151.27760588 218.40285274 164 206.625 C176.17217558 193.87408601 181.78545094 176.47184027 187 160 C189.97 160 192.94 160 196 160 C196.0536917 172.72578625 195.95237119 185.43729615 195.62768555 198.15917969 C195.56147035 200.79092369 195.50229373 203.42277145 195.44335938 206.0546875 C195.4014623 207.76042705 195.35916005 209.46615671 195.31640625 211.171875 C195.29969376 211.9427948 195.28298126 212.7137146 195.26576233 213.50799561 C195.24581711 214.2436676 195.22587189 214.9793396 195.20532227 215.73730469 C195.18977798 216.3698114 195.1742337 217.00231812 195.15821838 217.6539917 C194.9247124 221.11633888 194.43042686 224.55658516 194 228 C129.98 228 65.96 228 0 228 C0 225.03 0 222.06 0 219 C1.19496094 218.96261719 2.38992188 218.92523438 3.62109375 218.88671875 C11.90160338 218.5665982 19.26879095 218.25524592 27 215 C27.99 214.67 28.98 214.34 30 214 C31.15020525 211.75256244 31.15020525 211.75256244 32 209 C32.33663257 208.07401127 32.67326513 207.14802254 33.02009869 206.19397354 C36.06971506 196.25379499 35.1494623 184.959647 35.14526367 174.65722656 C35.14826429 173.16566892 35.15166886 171.67411204 35.15544128 170.18255615 C35.1641932 166.16991158 35.16661563 162.1572884 35.16725707 158.1446352 C35.16797255 155.62726182 35.17011618 153.10989372 35.17275429 150.59252167 C35.18197823 141.78075318 35.18609285 132.96899972 35.18530273 124.15722656 C35.18470259 115.99059465 35.19524971 107.82402891 35.2110464 99.65741372 C35.22419251 92.60556109 35.22948369 85.55372991 35.22884732 78.50186515 C35.22859443 74.30796454 35.23132887 70.11412289 35.24202538 65.92023468 C35.25182656 61.97039961 35.25170483 58.02067841 35.24450874 54.07083893 C35.24347768 52.63634064 35.24573561 51.20183479 35.2518692 49.76734924 C35.28247598 42.10166596 35.00576537 34.50869032 34.2348175 26.88372803 C34.14365733 25.83466479 34.14365733 25.83466479 34.05065554 24.76440835 C33.49410056 19.90552881 32.05847881 16.79293296 29 13 C23.18782744 9.55159389 17.2056237 9.28361287 10.5625 8.8125 C9.54478516 8.73064453 8.52707031 8.64878906 7.47851562 8.56445312 C4.98630937 8.36554464 2.49379327 8.17769513 0 8 C0 5.36 0 2.72 0 0 Z " fill="#E25751" transform="translate(637,288)"/>
<path d="M0 0 C36.63 0 73.26 0 111 0 C111 2.64 111 5.28 111 8 C110.18845459 8.04487549 109.37690918 8.08975098 108.54077148 8.13598633 C104.83878244 8.34821573 101.13827985 8.58017225 97.4375 8.8125 C96.16068359 8.88275391 94.88386719 8.95300781 93.56835938 9.02539062 C84.34680045 9.50305601 84.34680045 9.50305601 76 13 C69.29692885 22.54752422 70.71042678 35.72903134 70.74121094 46.91674805 C70.73849521 48.58862459 70.73493103 50.26049993 70.73059082 51.93237305 C70.72153584 56.43835167 70.72498184 60.94423789 70.73134899 65.45021796 C70.73644237 70.18253802 70.73170855 74.91485062 70.72857666 79.64717102 C70.72494777 87.58811858 70.72970889 95.52902882 70.73925781 103.4699707 C70.75015154 112.63478507 70.74660577 121.79951051 70.735605 130.96432275 C70.72651482 138.85509362 70.72525498 146.74583781 70.73048234 154.63661224 C70.73359107 159.33999292 70.73404139 164.04333186 70.72740936 168.74670982 C70.7216109 173.16681692 70.72567838 177.58680978 70.73719788 182.0069046 C70.73983063 183.62375258 70.73910317 185.24061025 70.73467255 186.8574543 C70.15767993 200.66988341 70.15767993 200.66988341 75.3125 212.9375 C82.52104145 218.46963647 90.84557364 218.16502582 99.55859375 218.203125 C100.57993912 218.20882507 101.60128448 218.21452515 102.65357971 218.22039795 C104.81453423 218.22982531 106.97550298 218.23637291 109.13647461 218.24023438 C112.39528565 218.24987511 115.65344786 218.28089367 118.91210938 218.3125 C143.26199918 218.51310253 143.26199918 218.51310253 164.10546875 207.1015625 C176.43830772 194.26777649 182.28243335 176.7735703 187 160 C189.97 160 192.94 160 196 160 C196.15947291 182.69667486 195.61361334 205.2963064 195 228 C130.65 228 66.3 228 0 228 C0 225.03 0 222.06 0 219 C1.27875 218.96261719 2.5575 218.92523438 3.875 218.88671875 C5.5833604 218.82101258 7.29169247 218.75456689 9 218.6875 C9.83917969 218.66494141 10.67835937 218.64238281 11.54296875 218.61914062 C18.53107332 218.32119818 24.28170394 217.18645553 29.875 212.6875 C36.97835799 203.70384137 35.14934705 189.9851704 35.14526367 179.11401367 C35.14826016 177.51641258 35.15166381 175.91881221 35.15544128 174.32121277 C35.16423525 170.00289199 35.16661744 165.68459106 35.16725707 161.3662622 C35.16797015 158.66267871 35.17010932 155.9591002 35.17275429 153.25551796 C35.18199221 143.80763049 35.18609109 134.35975708 35.18530273 124.91186523 C35.18470224 116.13060297 35.19525257 107.34940218 35.2110464 98.56815547 C35.22415721 91.00691192 35.22948515 83.44568838 35.22884732 75.88443357 C35.2285934 71.3782019 35.23138633 66.87202493 35.24202538 62.36580467 C35.25176627 58.12466513 35.25174483 53.88363195 35.24450874 49.64248848 C35.24347034 48.09462706 35.24578105 46.5467588 35.2518692 44.998909 C35.69261962 28.75958743 35.69261962 28.75958743 30 14 C26.91313915 11.03926895 24.25224254 10.44468069 20.0625 9.875 C18.92554688 9.7203125 17.78859375 9.565625 16.6171875 9.40625 C11.08763612 8.78522047 5.55311179 8.34536538 0 8 C0 5.36 0 2.72 0 0 Z " fill="#E25751" transform="translate(1284,288)"/>
<path d="M0 0 C5.424375 -0.0825 10.84875 -0.165 16.4375 -0.25 C18.97715454 -0.30462402 18.97715454 -0.30462402 21.56811523 -0.36035156 C36.44114949 -0.54720306 36.44114949 -0.54720306 43 4 C46.71220023 7.62165877 47.346003 10.85372924 47.6875 15.875 C47.53322278 21.76692049 45.6772306 24.62460823 41.53125 28.671875 C41.0259375 29.11015625 40.520625 29.5484375 40 30 C40.9075 30.556875 41.815 31.11375 42.75 31.6875 C46.83777047 34.59610591 49.40501434 37.21504302 51 42 C51.39680449 47.25765945 50.89498146 50.56102842 48 55 C42.40932115 60.46644154 37.59489943 62.2288981 29.80151367 62.22631836 C29.05490479 62.21608643 28.3082959 62.20585449 27.5390625 62.1953125 C26.83740967 62.19329834 26.13575684 62.19128418 25.4128418 62.18920898 C22.81682707 62.1788238 20.22090628 62.15090176 17.625 62.125 C11.80875 62.08375 5.9925 62.0425 0 62 C0 41.54 0 21.08 0 0 Z M8 6 C8 13.26 8 20.52 8 28 C12.9809375 28.0928125 12.9809375 28.0928125 18.0625 28.1875 C19.09511963 28.21481201 20.12773926 28.24212402 21.19165039 28.27026367 C26.9332151 28.32176994 30.93956672 27.76942487 36 25 C38.72047581 22.27952419 39.82100497 19.84839309 40 16 C38.80690257 11.67502181 38.01571237 9.59306695 34.08984375 7.30078125 C29.05271251 5.32615267 23.88850294 5.67841051 18.5625 5.8125 C15.076875 5.874375 11.59125 5.93625 8 6 Z M8 34 C8 41.26 8 48.52 8 56 C11.85459456 56.08124438 15.70746115 56.14062344 19.5625 56.1875 C21.19155273 56.22520508 21.19155273 56.22520508 22.85351562 56.26367188 C30.3353192 56.33189501 35.79267597 56.04284588 41.4375 50.6875 C43.317456 47.45397568 43.47057422 45.68616474 43 42 C42.07555952 39.05859847 41.19936257 38.14548079 38.6875 36.3125 C34.32976711 34.18430487 30.28540978 33.8755005 25.48046875 33.90234375 C23.9480957 33.90717773 23.9480957 33.90717773 22.38476562 33.91210938 C20.80211914 33.92467773 20.80211914 33.92467773 19.1875 33.9375 C18.11306641 33.94201172 17.03863281 33.94652344 15.93164062 33.95117188 C13.28773643 33.96292256 10.643861 33.980857 8 34 Z " fill="#E25751" transform="translate(435,578)"/>
<path d="M0 0 C8 0 8 0 10.6171875 2.16796875 C11.36226562 3.16441406 12.10734375 4.16085937 12.875 5.1875 C13.29297852 5.73067871 13.71095703 6.27385742 14.14160156 6.83349609 C15.01695275 7.9760425 15.88145808 9.12697378 16.73535156 10.28564453 C18.69099549 12.93671243 20.72869559 15.52381318 22.75 18.125 C23.56999558 19.19846692 24.38896415 20.27271895 25.20703125 21.34765625 C29.18599613 26.56628387 33.23178387 31.73322451 37.26660156 36.90869141 C37.83733398 37.6413623 38.40806641 38.3740332 38.99609375 39.12890625 C39.50325928 39.77931885 40.0104248 40.42973145 40.53295898 41.09985352 C42.04047436 43.05242335 43.51991644 45.02655525 45 47 C45.33 31.49 45.66 15.98 46 0 C48.31 0 50.62 0 53 0 C53 20.46 53 40.92 53 62 C46 62 46 62 44.09472656 60.56982422 C43.61487305 59.9048291 43.13501953 59.23983398 42.640625 58.5546875 C42.08802002 57.81444336 41.53541504 57.07419922 40.96606445 56.31152344 C40.39976318 55.5074707 39.83346191 54.70341797 39.25 53.875 C38.02001256 52.21058171 36.78953863 50.54652283 35.55859375 48.8828125 C34.95644043 48.05297852 34.35428711 47.22314453 33.73388672 46.36816406 C31.33936887 43.09770178 28.83560595 39.92157635 26.3125 36.75 C25.43558932 35.63719807 24.55928556 34.5239176 23.68359375 33.41015625 C23.25030762 32.8598877 22.81702148 32.30961914 22.37060547 31.74267578 C20.88171354 29.84960301 19.39570051 27.95429451 17.91015625 26.05859375 C17.40250732 25.41116211 16.8948584 24.76373047 16.37182617 24.09667969 C15.39363744 22.8490144 14.41591545 21.60098301 13.4387207 20.35253906 C11.32496962 17.58489877 11.32496962 17.58489877 9 15 C8.67 30.51 8.34 46.02 8 62 C5.36 62 2.72 62 0 62 C0 41.54 0 21.08 0 0 Z " fill="#E25751" transform="translate(996,578)"/>
<path d="M0 0 C2.64 0 5.28 0 8 0 C8.33 11.22 8.66 22.44 9 34 C11.990625 31.03 14.98125 28.06 18.0625 25 C18.99070557 24.08089844 19.91891113 23.16179688 20.87524414 22.21484375 C26.44927121 16.65927964 31.74419048 10.95980533 36.7421875 4.88110352 C39.1958685 1.94179815 40.79530884 0.19607143 44.6640625 -0.43359375 C47.15059436 -0.43709591 49.53013244 -0.25659847 52 0 C47.75072252 5.02246405 43.37658313 9.89065174 38.875 14.6875 C37.96427734 15.66299805 37.96427734 15.66299805 37.03515625 16.65820312 C36.44347656 17.29048828 35.85179687 17.92277344 35.2421875 18.57421875 C34.68370117 19.17411621 34.12521484 19.77401367 33.54980469 20.39208984 C32.26409286 21.72600574 30.89479193 22.97875009 29.5078125 24.20703125 C29.01023437 24.79871094 28.51265625 25.39039063 28 26 C28.4061705 29.15991704 29.56772626 31.02520216 31.58984375 33.43359375 C32.12246826 34.07659424 32.65509277 34.71959473 33.20385742 35.38208008 C33.77595947 36.06036865 34.34806152 36.73865723 34.9375 37.4375 C36.12115984 38.86605498 37.30343336 40.29575966 38.484375 41.7265625 C39.07541016 42.44102539 39.66644531 43.15548828 40.27539062 43.89160156 C42.80652486 46.98600633 45.25697844 50.13877245 47.6875 53.3125 C48.47511719 54.33988281 49.26273438 55.36726562 50.07421875 56.42578125 C51.43558735 58.24554171 52.73937103 60.10905654 54 62 C49.9610583 63.23839295 47.03102209 63.33566644 43 62 C38.36545315 57.81616729 35.01276016 52.32264887 31.52490234 47.18945312 C29.39543915 44.13197219 27.07354253 41.29925273 24.6875 38.4375 C23.96949219 37.56996094 23.25148438 36.70242188 22.51171875 35.80859375 C22.01285156 35.21175781 21.51398437 34.61492188 21 34 C19.93513145 34.89301656 18.87324959 35.7895947 17.8125 36.6875 C17.22082031 37.18636719 16.62914062 37.68523438 16.01953125 38.19921875 C15.35308594 38.79347656 14.68664062 39.38773438 14 40 C12.6696875 41.06734375 12.6696875 41.06734375 11.3125 42.15625 C8.16964495 46.02111229 8.22404259 48.96857602 8.1875 53.8125 C8.16236328 54.60076172 8.13722656 55.38902344 8.11132812 56.20117188 C8.05277019 58.13358373 8.02344512 60.06684327 8 62 C5.36 62 2.72 62 0 62 C0 41.54 0 21.08 0 0 Z " fill="#E25751" transform="translate(731,578)"/>
<path d="M0 0 C2.64 0 5.28 0 8 0 C9.11069936 2.41665643 10.22137569 4.83332344 11.33203125 7.25 C11.68005798 8.00726379 12.02808472 8.76452759 12.38665771 9.54473877 C14.30697003 13.72330348 16.22691866 17.9020348 18.14624023 22.08105469 C18.92561655 23.77799568 19.7049948 25.47493579 20.484375 27.171875 C20.87125992 28.0142572 21.25814484 28.8566394 21.65675354 29.72454834 C23.68599276 34.14215235 25.71717607 38.55884655 27.75227356 42.97375488 C28.54532882 44.69446633 29.3375028 46.41558387 30.12963867 48.13671875 C31.0684158 50.17646758 32.00863006 52.21555573 32.95043945 54.25390625 C33.3599585 55.14464844 33.76947754 56.03539062 34.19140625 56.953125 C34.54404541 57.71786133 34.89668457 58.48259766 35.26000977 59.27050781 C36 61 36 61 36 62 C33.03 62 30.06 62 27 62 C26.01836578 60.06374902 25.03977546 58.12595461 24.0625 56.1875 C23.51722656 55.10855469 22.97195313 54.02960937 22.41015625 52.91796875 C21 50 21 50 20 47 C9.11 46.67 -1.78 46.34 -13 46 C-13.99 48.97 -14.98 51.94 -16 55 C-17.27410499 57.36619498 -18.58881646 59.71290944 -20 62 C-22.64 62 -25.28 62 -28 62 C-25.38187031 55.31236866 -22.5966925 48.72694515 -19.62890625 42.1875 C-19.22469955 41.29313232 -18.82049286 40.39876465 -18.40403748 39.47729492 C-17.55549477 37.60124474 -16.70587786 35.72568008 -15.85522461 33.85058594 C-14.56638212 31.00856046 -13.28198249 28.16455755 -11.99804688 25.3203125 C-11.16693198 23.48425488 -10.33556027 21.64831348 -9.50390625 19.8125 C-8.93803551 18.558927 -8.93803551 18.558927 -8.36073303 17.2800293 C-5.71084488 11.44878512 -2.89938825 5.71108967 0 0 Z M3 10 C1.1462338 14.11067345 -0.70511632 18.22242283 -2.55419922 22.33520508 C-3.18406326 23.73524619 -3.81459584 25.13498674 -4.44580078 26.53442383 C-5.35102918 28.5417003 -6.25387683 30.5500324 -7.15625 32.55859375 C-7.44060913 33.18777206 -7.72496826 33.81695038 -8.01794434 34.4651947 C-9.41068344 37.13035925 -9.41068344 37.13035925 -10 40 C-1.09 40 7.82 40 17 40 C13.21158542 29.70024786 8.76672089 19.87645644 4 10 C3.67 10 3.34 10 3 10 Z " fill="#E25751" transform="translate(300,578)"/>
<path d="M0 0 C0.99 0.66 1.98 1.32 3 2 C2.38722388 4.96175123 1.74627478 6.38058783 0 9 C-2.69535379 7.96942355 -5.13925394 6.91711075 -7.625 5.4375 C-13.52047479 2.92646444 -19.49265851 2.07624261 -25.5625 4.3125 C-28.03819949 5.91894254 -28.03819949 5.91894254 -30 8 C-30.68767751 13.36511747 -30.68767751 13.36511747 -28.5859375 18.07421875 C-24.80977145 20.88637866 -20.76508689 21.76265596 -16.25 22.9375 C-8.57627718 24.93562812 -1.56796682 27.20903525 4 33.125 C5.6054572 37.74068944 5.63860109 42.17501402 5 47 C2.48125998 52.1307667 -1.060642 55.54606756 -6.1875 58.08203125 C-15.51299505 61.12576922 -25.88722278 59.57453677 -34.55859375 55.4453125 C-37.65131911 53.61441909 -39.76082766 51.79896543 -42 49 C-40.02 46.525 -40.02 46.525 -38 44 C-35.84707106 45.07148084 -33.70099355 46.15381582 -31.5625 47.25390625 C-30.716875 47.68574219 -29.87125 48.11757813 -29 48.5625 C-28.154375 48.99691406 -27.30875 49.43132813 -26.4375 49.87890625 C-21.50705843 52.14659332 -16.39016625 52.99107683 -11.0625 51.43359375 C-7.59697109 50.05460204 -6.1039172 49.1558758 -4 46 C-3.32746132 41.8908164 -3.32746132 41.8908164 -4 38 C-9.38105416 33.37770064 -15.83545026 32.13140828 -22.56835938 30.37695312 C-28.87642818 28.62709579 -34.4167699 26.57072526 -38.41015625 21.05078125 C-39.8985418 15.87593084 -40.05511904 9.88365057 -38.1953125 4.80078125 C-30.26911298 -7.79914282 -11.5193048 -6.31257903 0 0 Z " fill="#E25751" transform="translate(625,582)"/>
<path d="M0 0 C2.64 0 5.28 0 8 0 C8 18.48 8 36.96 8 56 C19.55 56 31.1 56 43 56 C43 57.98 43 59.96 43 62 C28.81 62 14.62 62 0 62 C0 41.54 0 21.08 0 0 Z " fill="#E25751" transform="translate(134,578)"/>
<path d="M0 0 C2.64 0 5.28 0 8 0 C8 20.46 8 40.92 8 62 C5.36 62 2.72 62 0 62 C0 41.54 0 21.08 0 0 Z " fill="#E25751" transform="translate(884,578)"/>
</svg>
