<?xml version="1.0" encoding="UTF-8"?>
<svg version="1.1" xmlns="http://www.w3.org/2000/svg" width="1592" height="1428">
<path d="M0 0 C74.91 0 149.82 0 227 0 C227 8.58 227 17.16 227 26 C222.730625 26.4125 218.46125 26.825 214.0625 27.25 C191.54477365 29.60839386 167.40555448 33.74236233 151.625 51.703125 C141.29969016 65.29305486 137.34280681 81.59315783 139.43359375 98.5078125 C146.69886375 148.03703893 170.20889468 196.8541725 189.79145813 242.4797821 C193.75171341 251.72492569 197.59742866 261.01694482 201.4375 270.3125 C202.85377911 273.73844159 204.27049134 277.16420384 205.6875 280.58984375 C206.04058228 281.44350525 206.39366455 282.29716675 206.75744629 283.17669678 C210.79049346 292.92074583 214.86225344 302.64854081 218.9375 312.375 C219.49789474 313.71271454 219.49789474 313.71271454 220.0696106 315.07745361 C222.3371776 320.49004833 224.60564313 325.90226611 226.87432861 331.31439209 C230.20951088 339.27141399 233.54265179 347.22929086 236.875 355.1875 C237.42690506 356.50545563 237.42690506 356.50545563 237.98995972 357.85003662 C244.43417462 373.24073295 250.85372038 388.64164573 257.26794434 404.04486084 C263.20703983 418.30630499 269.15772622 432.56282255 275.125 446.8125 C275.49336975 447.69217438 275.8617395 448.57184875 276.24127197 449.47817993 C278.82692779 455.65236584 281.4133674 461.82622326 284 468 C286.95888498 475.06226902 289.91740037 482.12469258 292.875 489.1875 C293.24320862 490.06677155 293.61141724 490.94604309 293.99078369 491.85195923 C300.43274378 507.23729937 306.85065344 522.63260204 313.26190186 538.03076172 C319.32412936 552.59021683 325.40470561 567.14185931 331.5 581.6875 C338.38001774 598.10585135 345.21683286 614.5413817 352 631 C359.49224898 614.43242703 366.84259613 597.81720964 373.97265625 581.08984375 C377.09897641 573.75575914 380.26399081 566.4387396 383.4375 559.125 C383.98307377 557.86726925 384.52864668 556.60953813 385.07421875 555.35180664 C386.16889093 552.828519 387.26382916 550.30534698 388.35888672 547.78222656 C390.8044512 542.14683487 393.2463429 536.50985169 395.68850708 530.87298584 C397.04218716 527.74859184 398.39610566 524.62430116 399.75 521.5 C400.29166781 520.25000049 400.83333448 519.00000049 401.375 517.75 C428.1875 455.875 455 394 534.625 210.25 C534.89313507 209.63122482 535.16127014 209.01244965 535.43753052 208.37492371 C535.97908975 207.12517554 536.52065469 205.87542986 537.06222534 204.62568665 C538.41808263 201.49685379 539.77384008 198.36797774 541.12939453 195.23901367 C544.07555654 188.43884077 547.02429905 181.63980005 549.97592163 174.84199524 C552.13316189 169.87243933 554.28480428 164.90047439 556.43423462 159.92753601 C557.90294316 156.53082295 559.37538453 153.13578841 560.85351562 149.74316406 C585.41566409 101.95545764 585.41566409 101.95545764 587.06640625 51.3984375 C583.49609294 43.22007275 577.71997364 38.48813723 569.6875 34.8125 C544.60716098 25.84974081 516.22577397 26.76016736 490 26 C490 17.42 490 8.84 490 0 C533.56 0 577.12 0 622 0 C625.3 8.91 628.6 17.82 632 27 C643.24655033 52.58997683 657.7397668 76.62043461 677 97 C678.21427657 98.39066622 679.42285952 99.78632963 680.625 101.1875 C683.91391438 104.96936642 687.41815842 108.49757566 691 112 C687.25323056 122.09477828 683.42257254 132.14597086 679.375 142.125 C678.97415695 143.11327789 678.97415695 143.11327789 678.56521606 144.121521 C670.93768268 162.87993319 662.76221112 181.40466724 654.64355469 199.95410156 C650.69474275 208.97969676 646.76989107 218.01571219 642.84387207 227.05123901 C641.56395449 229.99665286 640.28352106 232.94184194 639.00292969 235.88696289 C634.06258482 247.2493586 629.12944739 258.61483368 624.20556641 269.984375 C618.78841819 282.49198711 613.36340272 294.99618347 607.9375 307.5 C607.44416168 308.6368927 606.95082336 309.7737854 606.4425354 310.94512939 C599.00546529 328.08289043 591.55995908 345.21696885 584.1088562 362.34863281 C578.73287712 374.70938695 573.36480208 387.07348448 568.00927734 399.44311523 C563.0180493 410.96723589 558.0088114 422.48351302 553 434 C547.55577186 446.51792477 542.1122589 459.03612267 536.6875 471.5625 C530.7767645 485.21090789 524.85821 498.85591618 518.9375 512.5 C518.19749252 514.20533905 518.19749252 514.20533905 517.4425354 515.94512939 C510.00546529 533.08289043 502.55995908 550.21696885 495.1088562 567.34863281 C489.73287712 579.70938695 484.36480208 592.07348448 479.00927734 604.44311523 C474.0180493 615.96723589 469.0088114 627.48351302 464 639 C458.07079661 652.63302934 452.1450208 666.26748144 446.23803711 679.91015625 C442.59803832 688.31573661 438.95238074 696.71884941 435.3046875 705.12109375 C434.53935448 706.88411583 434.53935448 706.88411583 433.75856018 708.68275452 C431.68507801 713.45918291 429.61158997 718.23560862 427.53744507 723.01174927 C426.07806239 726.37229191 424.61907117 729.73300427 423.16015625 733.09375 C422.47263527 734.67657021 422.47263527 734.67657021 421.77122498 736.29136658 C419.83837718 740.74484699 417.90961767 745.19967438 416.01123047 749.66796875 C415.72743027 750.33558228 415.44363007 751.0031958 415.15122986 751.69104004 C414.43871697 753.37173818 413.72978985 755.05395531 413.02124023 756.73632812 C412 759 412 759 411 760 C408.40640678 760.08851529 405.83960309 760.11525945 403.24609375 760.09765625 C402.47064713 760.0962413 401.6952005 760.09482635 400.89625549 760.09336853 C398.40996506 760.08775345 395.9237634 760.07519846 393.4375 760.0625 C391.75586067 760.05748694 390.07421994 760.0529237 388.39257812 760.04882812 C384.26168434 760.03777913 380.13085724 760.02050445 376 760 C358.51775138 719.39785712 358.51775138 719.39785712 350.67724609 700.31616211 C346.14604233 689.30623923 341.51340316 678.34010426 336.875 667.375 C330.55345561 652.4290461 324.25750356 637.47288149 318 622.5 C311.86435314 607.82013603 305.69574783 593.15459802 299.5 578.5 C293.30425137 563.8454001 287.13604942 549.17969674 281 534.5 C274.88133517 519.86346957 268.73629907 505.23836327 262.5625 490.625 C262.16918488 489.69399475 261.77586975 488.7629895 261.37063599 487.80377197 C258.58138978 481.20210631 255.79084505 474.60098988 253 468 C249.81160436 460.45871164 246.62379007 452.91717827 243.4375 445.375 C243.04410431 444.44383362 242.65070862 443.51266724 242.24539185 442.55328369 C236.09502691 427.99226434 229.98096795 413.4163152 223.88497925 398.8324585 C218.12012675 385.04216307 212.32044919 371.2669165 206.5 357.5 C200.30425078 342.84539869 194.13635568 328.17956947 188 313.5 C172.63691978 276.75764847 157.08177665 240.09777606 141.46040344 203.46458435 C137.42295696 193.99535273 133.39284813 184.52301011 129.36408997 175.05007935 C125.5042891 165.9757423 121.63743616 156.90442924 117.76628113 147.83493042 C115.49760099 142.51823147 113.23584889 137.1987496 110.98622131 131.8739624 C94.15112563 92.05664698 73.26650285 49.52283374 30.78515625 32.28125 C20.73467658 28.87923005 10.53612923 27.17068103 0 26 C0 17.42 0 8.84 0 0 Z " fill="#E25751" transform="translate(375,334)"/>
<path d="M0 0 C16.82300267 6.34604371 30.40410597 20.90781771 41 35 C41.39993164 35.53077148 41.79986328 36.06154297 42.21191406 36.60839844 C64.57222115 66.7939278 77.45200795 109.43393869 71.92260742 146.93798828 C71.71341675 148.32993408 71.71341675 148.32993408 71.5 149.75 C67.78807876 175.27906211 72.01937671 193.69781851 87.0390625 214.875 C88.95746759 217.32077542 90.94348241 219.66954474 93 222 C93.70898438 222.82886719 94.41796875 223.65773438 95.1484375 224.51171875 C98.98631416 228.90844412 102.92116239 232.85089051 107.375 236.625 C111.48772009 240.27007434 114.43320184 243.37647318 115 249 C114.62419763 254.46436957 112.76643356 258.014794 109 262 C106.01905059 264.15039218 102.89819215 266.04324879 99.75 267.9375 C88.84822772 273.73796576 88.84822772 273.73796576 80.75 282.4375 C81.31665454 288.24570905 84.9842578 292.12273167 89 296 C90.20643566 299.61930698 90.32268559 302.19231005 90 306 C87.16164659 311.35818835 83.93772382 313.66515239 78.75 316.375 C78.1003125 316.72949219 77.450625 317.08398438 76.78125 317.44921875 C75.19455263 318.31256879 73.59821382 319.1581601 72 320 C72.49371094 320.54269531 72.98742188 321.08539062 73.49609375 321.64453125 C74.13675781 322.35996094 74.77742188 323.07539062 75.4375 323.8125 C76.07558594 324.52019531 76.71367188 325.22789062 77.37109375 325.95703125 C80.39538054 329.75008159 80.39847225 333.29802747 80 338 C77.08329099 343.7212369 73.07866678 346.97377774 67 349 C65.13954046 352.72091907 66.25182233 357.02460822 67 361 C67.63987515 362.68552479 68.32785825 364.35356885 69.0625 366 C71.7202823 372.16915892 71.99250326 377.69165579 70.0625 384.125 C64.28553957 392.17773271 57.73517655 396.31620586 48.25 398.6875 C38.99859048 399.57705861 29.77299724 398.90053711 20.5625 397.875 C18.83181274 397.68683716 18.83181274 397.68683716 17.06616211 397.49487305 C8.26229376 396.45532592 -0.291487 394.74535943 -8.9375 392.8125 C-24.524011 389.38311553 -41.27905259 386.31956692 -55.68701172 395.01855469 C-60.2417877 398.00469361 -62.86604717 401.15057897 -65.5 405.875 C-65.87672852 406.52992432 -66.25345703 407.18484863 -66.64160156 407.85961914 C-84.98843161 440.30000947 -90.06286691 475.36531919 -80.28466797 511.65478516 C-72.88104629 537.52211324 -59.68831018 561.00207125 -43 582 C-41.94425781 583.34384766 -41.94425781 583.34384766 -40.8671875 584.71484375 C-36.12267352 590.64123487 -31.10078006 596.23455018 -25.80932617 601.67358398 C-22 605.67501868 -22 605.67501868 -22 609 C-44.48051355 591.88049922 -66.89998199 573.61318315 -83.74853516 550.70019531 C-84.99732441 549.00363496 -86.26887103 547.32604025 -87.54296875 545.6484375 C-116.82319557 506.52146259 -128.23823945 457.86950486 -121.92407227 409.59912109 C-114.26282726 359.8183269 -90.62677144 314.44927727 -58.46923828 276.17822266 C-20.74084966 231.18280024 10.81337072 178.82299827 20 120 C20.12697266 119.19030762 20.25394531 118.38061523 20.38476562 117.54638672 C26.04731505 79.27672656 20.59194703 38.78895677 1.5390625 4.9140625 C0 2 0 2 0 0 Z " fill="#E25751" transform="translate(1130,503)"/>
<path d="M0 0 C12.2140111 3.9571874 23.21199553 11.00373999 29.91796875 22.203125 C33.28565027 28.82649864 35.14956621 34.00917902 35.13307858 41.44419479 C35.1353216 42.21262396 35.13756463 42.98105312 35.13987562 43.77276802 C35.146234 46.36909517 35.14545041 48.96537237 35.14476013 51.56170654 C35.14789256 53.43390963 35.15146706 55.30611202 35.15544754 57.17831349 C35.1651698 62.34096651 35.16870008 67.50360846 35.17129052 72.6662693 C35.17517807 78.22939206 35.18481683 83.79250498 35.19384766 89.35562134 C35.20880877 99.00883535 35.22034452 108.66204857 35.22979546 118.31526947 C35.24367762 132.31478329 35.26487078 146.31427909 35.28822399 160.31377998 C35.32618516 183.08157839 35.36114322 205.8493796 35.39282227 228.6171875 C35.3937727 229.29886688 35.39472314 229.98054625 35.39570238 230.68288258 C35.41779145 246.54139422 35.43865599 262.39990689 35.45739746 278.25842285 C35.45820121 278.93771847 35.45900496 279.6170141 35.45983307 280.31689444 C35.46388307 283.74124096 35.46792476 287.16558749 35.47196633 290.58993402 C35.47276532 291.26657253 35.47356431 291.94321104 35.47438752 292.64035374 C35.47599982 294.00604512 35.47761065 295.3717365 35.47921998 296.73742789 C35.50674286 320.05743222 35.54176941 343.37741626 35.58346039 366.69740033 C35.6080743 380.63267453 35.62649024 394.56792867 35.636616 408.50322106 C35.64408391 418.09219228 35.65872329 427.68113657 35.67868023 437.27008983 C35.68992183 442.77962733 35.69821559 448.28912173 35.69767189 453.79867172 C35.69762143 474.40843347 35.85939602 494.97166262 36.92909241 515.55743408 C36.97026042 516.35441974 37.01142844 517.1514054 37.05384397 517.97254214 C37.74833008 531.05802604 38.85375402 544.06290615 41 557 C41.19078125 558.17175781 41.3815625 559.34351563 41.578125 560.55078125 C46.56895373 584.70511261 65.07391207 604.50318447 85.02929688 617.75683594 C104.99642525 630.3525517 126.95229244 634.32481966 150 637 C150 645.25 150 653.5 150 662 C59.91 662 -30.18 662 -123 662 C-123 653.75 -123 645.5 -123 637 C-121.12699219 636.76925781 -119.25398438 636.53851562 -117.32421875 636.30078125 C-96.73792122 633.67632608 -77.78496224 630.15638596 -59 621 C-57.52466797 620.29230469 -57.52466797 620.29230469 -56.01953125 619.5703125 C-33.93150224 608.28725006 -17.00115097 589.29575535 -8.91796875 565.86328125 C2.03637834 529.22570841 -0.69308979 487.04824985 -0.68332577 449.20498896 C-0.67957352 443.15507287 -0.66439065 437.1051829 -0.65071106 431.05528259 C-0.62861412 420.61459119 -0.6134273 410.17390526 -0.60334396 399.73319626 C-0.59275837 388.8034807 -0.57805802 377.87378291 -0.55806351 366.94408035 C-0.55681464 366.26017584 -0.55556577 365.57627134 -0.55427906 364.87164245 C-0.54791382 361.3973247 -0.541477 357.9230071 -0.53501268 354.44868954 C-0.48955572 329.94854969 -0.45302087 305.44840406 -0.421875 280.94824219 C-0.39162847 257.17186639 -0.35725218 233.39550232 -0.31738281 209.61914062 C-0.31615181 208.88405484 -0.31492081 208.14896905 -0.3136525 207.39160794 C-0.30128384 200.00843192 -0.28883227 192.62525604 -0.27632002 185.24208027 C-0.25084131 170.20660452 -0.22591532 155.17112786 -0.20132446 140.13565063 C-0.1996281 139.0990769 -0.1996281 139.0990769 -0.19789747 138.04156228 C-0.12265861 92.02772174 -0.06033782 46.01386223 0 0 Z " fill="#E25751" transform="translate(386,430)"/>
<path d="M0 0 C4.14182257 0.50877059 6.0254538 1.54150807 8.875 4.5625 C9.56464844 5.28824219 10.25429687 6.01398438 10.96484375 6.76171875 C14.7333141 10.90631282 18.42184875 15.11294706 22.015625 19.41015625 C29.52324132 28.14653711 38.3833087 34.39830336 48.0625 40.5 C58.94077388 47.37574936 70.65263385 55.30325306 75 68 C75.83765987 76.87919464 72.52519078 83.02481941 67.04296875 89.74609375 C63.6610823 93.47716159 60.03784349 96.98189702 56 100 C55.34 100 54.68 100 54 100 C55.64580437 104.93741311 57.910327 108.23548086 61.3125 112.1875 C69.69128281 122.13559881 74.62163999 133.19042883 74.23828125 146.28515625 C72.72646522 163.50994541 64.4672066 177.41574004 52 189 C48.82864256 191.63365324 45.4983927 193.82362202 42 196 C40.56984064 196.90029253 39.14020003 197.80140939 37.7109375 198.703125 C35.27050853 200.24125266 32.82957103 201.77851231 30.38623047 203.31201172 C22.43042169 208.31961039 14.65757447 213.5483538 7 219 C6.44683105 219.38800781 5.89366211 219.77601563 5.32373047 220.17578125 C-2.90245271 225.98778563 -9.86018701 232.60370157 -16.73803711 239.93603516 C-26.86393523 250.49804688 -39.06185901 256.06543962 -53.75 256.5 C-65.26964159 256.31952839 -76.25549082 253.723126 -86.52734375 248.5078125 C-87.20993759 248.16319977 -87.89253143 247.81858704 -88.59580994 247.46353149 C-95.76701545 243.74667962 -102.43030912 239.34241231 -109.06713867 234.75390625 C-111.08618138 233.35863484 -113.11534477 231.97915006 -115.14648438 230.6015625 C-133.43356005 218.1328799 -133.43356005 218.1328799 -137 211 C-137.30524409 208.23779116 -137.19261811 205.79296266 -137 203 C-132.24835752 202.85655419 -128.27348342 203.29050987 -123.6875 204.5 C-101.07186276 209.49120188 -79.06805136 203.22940922 -58 195 C-57.04013184 194.62568848 -56.08026367 194.25137695 -55.09130859 193.86572266 C-35.55710227 186.16142409 -17.25221895 177.72931989 -0.84033203 164.48486328 C0.94757788 163.04229654 2.7553864 161.62821245 4.56640625 160.21484375 C20.63320645 147.43292366 30.63273077 130.50224242 33 110 C34.18735196 85.50790401 28.46379434 70.56198466 12.625 52.08203125 C2.64083825 40.40895325 0.05003557 31.1407072 -1.1875 15.875 C-1.29513672 14.68261719 -1.40277344 13.49023438 -1.51367188 12.26171875 C-1.60583984 11.12089844 -1.69800781 9.98007813 -1.79296875 8.8046875 C-1.8808667 7.76296387 -1.96876465 6.72124023 -2.05932617 5.64794922 C-2 3 -2 3 0 0 Z " fill="#E25751" transform="translate(1274,213)"/>
<path d="M0 0 C0.99 0 1.98 0 3 0 C3.36609375 0.80179687 3.7321875 1.60359375 4.109375 2.4296875 C7.59880696 9.75749462 11.5089424 16.52724456 16.0625 23.25 C16.84705566 24.4102771 16.84705566 24.4102771 17.64746094 25.59399414 C18.65336789 27.07756374 19.66031519 28.56042865 20.66845703 30.04248047 C29.31596711 42.75530332 34.26477542 55.42153505 31.45703125 71.015625 C27.76072202 85.96423472 17.97413784 93.25739528 5.55200195 101.328125 C-0.92684355 105.54790479 -7.08364485 110.08364485 -12.5625 115.5625 C-23.70398459 126.70398459 -37.61211055 132.68953115 -53.4375 133.375 C-63.63399606 132.92680237 -73.68314309 129.94134165 -83.4375 127.125 C-84.26548096 126.89280762 -85.09346191 126.66061523 -85.9465332 126.42138672 C-99.99308515 122.21491753 -107.17852674 113.33780871 -114.0078125 100.8046875 C-125.79812499 78.57515612 -125.79812499 78.57515612 -125 68 C-124 65.5625 -124 65.5625 -123 64 C-119.70052382 64.29632601 -118.33420535 64.63977866 -116.04296875 67.109375 C-115.43066406 67.98078125 -114.81835938 68.8521875 -114.1875 69.75 C-107.38678977 78.64421244 -99.4271406 81.82562053 -88.44921875 83.35546875 C-70.48038034 84.36434132 -50.66463202 73.85683092 -37 63 C-36.2059375 62.38125 -35.411875 61.7625 -34.59375 61.125 C-16.27863999 45.82376885 -7.912503 25.37855554 -1.64501953 3.00268555 C-1 1 -1 1 0 0 Z " fill="#E25751" transform="translate(1261,263)"/>
<path d="M0 0 C1.155 0.185625 2.31 0.37125 3.5 0.5625 C6.97385684 7.51021368 3.92307675 16.79861644 1.75 23.75 C-8.65982529 59.73339904 -8.58026891 92.97725161 9.3996582 126.27246094 C16.51100995 138.93352166 25.59941792 146.38099831 38 153.5 C52.08250475 161.61638152 52.08250475 161.61638152 55.5 166.5625 C55.71484375 169.796875 55.71484375 169.796875 55.5 172.5625 C36.77646052 180.63932095 13.04209006 179.62187521 -5.75 172.3125 C-24.8673287 163.71870756 -34.20669568 150.93304713 -41.9375 131.9375 C-45.39570028 123.47022616 -49.12070661 117.20141579 -55.5 110.5625 C-60.20682043 105.17206993 -61.87779867 101.56157817 -61.7734375 94.37109375 C-60.57820417 82.09434003 -52.88060887 71.87802449 -44.6875 63.1875 C-33.75508348 51.57319254 -26.76129395 40.64101841 -20.51855469 25.93945312 C-9.43883586 0.08323488 -9.43883586 0.08323488 0 0 Z " fill="#E25751" transform="translate(1111.5,231.4375)"/>
<path d="M0 0 C11.25658281 6.96691206 18.35337308 16.30829706 21.42578125 29.1796875 C22.37266397 34.49496192 22.94489628 40.06882507 19.890625 44.7890625 C17.078125 46.2890625 17.078125 46.2890625 13.890625 46.7890625 C9.93640336 44.87859586 7.45814232 42.42518941 4.640625 39.1015625 C-6.21823984 26.80681471 -15.4198426 21.1488957 -32.0546875 19.88671875 C-53.28649736 18.87760231 -72.23543321 23.96545694 -88.48828125 37.81640625 C-102.40474761 50.81317571 -108.69090602 67.81105855 -113.171875 85.9140625 C-113.51842691 87.28488463 -113.8655181 88.65557053 -114.21313477 90.02612305 C-116.28640558 98.24727238 -118.26288937 106.48949054 -120.00610352 114.78759766 C-121.02052546 119.61136342 -121.02052546 119.61136342 -122.109375 121.7890625 C-124.484375 121.4765625 -124.484375 121.4765625 -127.109375 120.7890625 C-129.53598023 117.14915465 -129.41418636 114.4969953 -129.359375 110.2890625 C-129.35115723 109.50571533 -129.34293945 108.72236816 -129.33447266 107.9152832 C-129.0296667 90.83795606 -127.69965617 74.10977429 -124.296875 57.3515625 C-124.06081543 56.17424561 -123.82475586 54.99692871 -123.58154297 53.78393555 C-119.12403761 33.17934445 -108.0914777 14.59218381 -91.109375 1.7890625 C-84.48362217 -1.959992 -78.8094453 -3.35750859 -71.2109375 -3.16796875 C-69.82944213 -3.1455375 -68.44793056 -3.12408693 -67.06640625 -3.10351562 C-64.91636857 -3.06684794 -62.76718913 -3.0243572 -60.61767578 -2.96411133 C-51.46922242 -2.72033709 -43.8862901 -3.35813846 -35.13671875 -6.29980469 C-23.28483838 -9.86683836 -10.52905292 -5.59528205 0 0 Z " fill="#E25751" transform="translate(1245.109375,194.2109375)"/>
<path d="M0 0 C8.29997653 6.2969656 8.29997653 6.2969656 10 12 C11.00160005 30.20857523 1.16697542 54.79406367 -10 69 C-15.05296357 74.53024555 -21.47044062 79.3799575 -29.125 80.23828125 C-31.0625 80.25 -31.0625 80.25 -34 80 C-34.50337994 75.89929516 -34.24482037 74.34327126 -31.8046875 70.921875 C-30.83989559 69.85383167 -29.86266328 68.79692943 -28.875 67.75 C-17.966892 55.5063122 -12.64156044 43.16341131 -12.84375 26.55859375 C-13.22440533 20.32536264 -14.51356577 15.22965134 -18 10 C-18 9.34 -18 8.68 -18 8 C-19.65984798 7.31653318 -21.32836805 6.65411685 -23 6 C-23.86625 5.62875 -24.7325 5.2575 -25.625 4.875 C-37.62708516 1.76334829 -53.32009275 4.62292135 -64.07421875 10.60546875 C-67.89091292 13.36928177 -69.51470314 16.54410941 -71 21 C-71.77495324 27.44100476 -70.90496706 32.72172648 -67 38 C-61.17642752 42.6350883 -56.24688036 43.67008825 -49 43 C-43.83491672 41.24582077 -41.4358639 38.8717278 -39 34 C-38.29233918 29.51814815 -38.47864166 27.7583394 -41.0625 24 C-43.91588593 21.64403106 -43.91588593 21.64403106 -47.6875 22.0625 C-51.04787282 22.72265858 -51.04787282 22.72265858 -53 25 C-53.39764263 26.98821313 -53.73775349 28.98944339 -54 31 C-57.875 29.25 -57.875 29.25 -59 27 C-59.41197049 22.36533199 -58.95567673 19.64533463 -56 16 C-51.17047584 12.66532856 -46.67778681 12.29156005 -41 13 C-34.79254506 14.90024131 -30.82498319 19.96088133 -27 25 C-25.45567747 29.63296759 -24.75706581 34.38190457 -26.91796875 38.93359375 C-32.34531528 46.07986528 -42.04621691 50.24582459 -50.7265625 51.75 C-59.20298411 52.68211509 -66.51545235 52.50860976 -74 48 C-81.07408184 42.24045061 -83.64022641 34.55240883 -85.75 25.9375 C-85.8325 24.968125 -85.915 23.99875 -86 23 C-86.09474609 21.89591797 -86.09474609 21.89591797 -86.19140625 20.76953125 C-86.54809554 13.34809279 -85.16013275 6.82190172 -80.33984375 0.9921875 C-58.26686451 -19.94768192 -22.72812696 -16.48137795 0 0 Z " fill="#E25751" transform="translate(1243,238)"/>
<path d="M0 0 C3 1 3 1 3.88793945 2.68310547 C4.12730225 3.40385254 4.36666504 4.12459961 4.61328125 4.8671875 C4.88857666 5.66560059 5.16387207 6.46401367 5.44750977 7.28662109 C5.73295654 8.14078613 6.01840332 8.99495117 6.3125 9.875 C11.75029231 26.1547866 11.75029231 26.1547866 24.2265625 37.109375 C30.76189532 39.83407569 37.25363677 40.7195525 44.24926758 41.31713867 C47.91649774 41.64608168 49.87309871 41.91539914 53 44 C50.16749946 54.07111303 40.3177088 60.38675233 31.74609375 65.2890625 C22.37620337 69.94886487 10.90901403 70.23291439 1 67 C-3.63823331 63.38123282 -5.35055497 59.51001693 -7.1875 54.125 C-7.5577832 53.10212891 -7.5577832 53.10212891 -7.93554688 52.05859375 C-13.63588491 36.09764725 -12.16655446 24.19717828 -5.625 8.75390625 C-3.99856344 5.41874318 -2.63293732 2.63293732 0 0 Z " fill="#E25751" transform="translate(1150,263)"/>
</svg>
